<?xml version="1.0" encoding="UTF-8" standalone="no"?>
<!-- Creator: CorelDRAW X8 -->

<svg
   xmlns:dc="http://purl.org/dc/elements/1.1/"
   xmlns:cc="http://creativecommons.org/ns#"
   xmlns:rdf="http://www.w3.org/1999/02/22-rdf-syntax-ns#"
   xmlns:svg="http://www.w3.org/2000/svg"
   xmlns="http://www.w3.org/2000/svg"
   xmlns:sodipodi="http://sodipodi.sourceforge.net/DTD/sodipodi-0.dtd"
   xmlns:inkscape="http://www.inkscape.org/namespaces/inkscape"
   xml:space="preserve"
   width="46.271702in"
   height="7.94063in"
   version="1.0"
   style="clip-rule:evenodd;fill-rule:evenodd;image-rendering:optimizeQuality;shape-rendering:geometricPrecision;text-rendering:geometricPrecision"
   viewBox="0 0 5227.8747 897"
   id="svg2"
   inkscape:version="0.91 r13725"
   sodipodi:docname="logo.svg"><metadata
     id="metadata20"><rdf:RDF><cc:Work
         rdf:about=""><dc:format>image/svg+xml</dc:format><dc:type
           rdf:resource="http://purl.org/dc/dcmitype/StillImage" /><dc:title></dc:title></cc:Work></rdf:RDF></metadata><sodipodi:namedview
     pagecolor="#ffffff"
     bordercolor="#666666"
     borderopacity="1"
     objecttolerance="10"
     gridtolerance="10"
     guidetolerance="10"
     inkscape:pageopacity="0"
     inkscape:pageshadow="2"
     inkscape:window-width="1867"
     inkscape:window-height="1056"
     id="namedview18"
     showgrid="false"
     inkscape:zoom="0.26408072"
     inkscape:cx="1851.5271"
     inkscape:cy="284.6204"
     inkscape:window-x="53"
     inkscape:window-y="24"
     inkscape:window-maximized="1"
     inkscape:current-layer="svg2" /><defs
     id="defs4"><style
       type="text/css"
       id="style6"><![CDATA[
    .fil1 {fill:#FF5112}
    .fil2 {fill:white}
    .fil0 {fill:white}
    .fil3 {fill:white;fill-rule:nonzero}
   ]]></style></defs><path
     style="fill:#ffffff"
     inkscape:connector-curvature="0"
     id="path10"
     d="M 389,0 0,0 l 0,672 389,225 0,-509 0,-109 -203,0 100,109 0,328 c 0,0 -178,-103 -178,-103 0,0 0,-504 0,-504 l 281,0 0,-109 z"
     class="fil0" /><path
     style="fill:#ff5112"
     inkscape:connector-curvature="0"
     id="path12"
     d="m 451,0 389,0 0,672 -389,225 0,-509 0,-109 204,0 -100,109 0,328 c 0,0 177,-103 177,-103 0,0 0,-504 0,-504 l -281,0 0,-109 z"
     class="fil1" /><path
     style="fill:#ffffff"
     inkscape:connector-curvature="0"
     id="path14"
     d="m 1380,359 50,-59 -6,-7 c -43,-42 -101,-66 -162,-66 -121,0 -227,93 -227,217 0,127 100,226 227,226 65,0 128,-27 172,-76 l 2,-3 0,-170 -160,0 34,78 48,0 0,60 -8,5 c -26,18 -56,28 -88,28 -79,0 -149,-60 -149,-141 0,-85 65,-145 149,-145 41,0 82,16 110,45 l 8,8 z m 512,-120 -78,0 0,256 c 0,70 -48,97 -112,97 -65,0 -113,-27 -113,-97 l 0,-256 -78,0 0,256 c 0,117 79,175 191,175 111,0 190,-58 190,-175 l 0,-256 z m 172,0 -78,0 0,422 302,0 0,-78 -224,0 0,-344 z m 297,422 159,0 c 56,0 97,-15 136,-57 38,-41 62,-99 62,-156 0,-113 -84,-209 -200,-209 l -220,0 35,79 28,0 0,343 z m 78,-343 80,0 c 77,0 120,62 120,135 0,69 -46,130 -119,130 l -81,0 0,-265 z"
     class="fil2" /><path
     style="fill:#ffffff;fill-rule:nonzero"
     inkscape:connector-curvature="0"
     id="path16"
     d="m 3087.6639,523.52518 c -6.9626,12.53251 -16.7099,23.67252 -29.2424,30.63502 -13.925,6.96251 -29.2426,9.74752 -47.3451,9.74752 -30.635,0 -54.3076,-9.74752 -72.4101,-27.85003 -19.495,-19.49501 -27.85,-44.56003 -27.85,-75.19506 0,-33.42003 8.355,-58.48505 27.85,-76.58756 18.1025,-18.10252 43.1676,-27.85003 75.1951,-27.85003 25.065,0 45.9525,5.57001 61.27,18.1025 16.71,12.53253 25.0649,29.24254 27.85,50.13006 l -20.8875,0 c -2.785,-16.71001 -11.1399,-27.85002 -22.28,-36.20503 -11.14,-8.35501 -27.85,-12.53252 -47.345,-12.53252 -25.065,0 -44.56,6.96251 -59.8776,22.28002 -15.3175,15.31751 -22.28,36.20503 -22.28,62.66256 0,25.06502 6.9625,45.95254 22.28,61.27005 15.3176,15.31752 34.8126,22.28002 58.4851,22.28002 20.8875,0 38.9899,-5.57001 52.915,-18.10252 15.3175,-11.14 22.28,-25.06502 22.28,-43.16753 l 0,-9.74752 -62.6626,0 0,-16.71 82.1576,0 0,101.65257 -15.3174,0 -2.7851,-34.81252 z m 364.8353,-44.56004 90.5127,0 -45.9527,-101.65258 -44.56,101.65258 z m -57.0925,79.37256 90.5125,-196.34265 22.28,0 90.5127,196.34265 -19.4951,0 -27.85,-59.87754 -108.6151,0 -27.8499,59.87754 -19.4951,0 z m 498.5155,0 0,-196.34265 30.6349,0 83.5501,178.24015 84.9426,-178.24015 29.2425,0 0,196.34265 -19.4951,0 0,-179.63265 -83.5501,179.63265 -22.28,0 -86.335,-179.63265 2.7851,179.63265 -19.495,0 z m 543.0754,0 0,-196.34265 151.7827,0 0,18.10251 -132.2877,0 0,69.62506 122.54,0 0,18.10251 -122.54,0 0,72.41007 132.2877,0 0,18.1025 -151.7827,0 z m 449.7779,-64.05505 19.495,0 0,0 c 0,15.31752 5.5699,27.85003 16.7099,36.20503 11.1401,9.74752 26.4576,13.92502 45.9526,13.92502 18.1025,0 33.42,-2.785 44.5601,-11.14001 11.14,-6.96251 16.71,-16.71001 16.71,-29.24253 0,-9.74751 -2.7851,-16.71 -9.7476,-20.88751 -5.57,-5.57001 -19.495,-9.74752 -38.9901,-12.53252 l -43.1675,-8.35501 c -15.3175,-2.78499 -26.4575,-8.35499 -34.8124,-15.31751 -6.9626,-8.355 -11.1401,-19.49501 -11.1401,-33.42003 0,-16.71 6.9625,-30.63502 19.495,-41.77502 13.925,-9.74751 32.0276,-15.31752 55.7001,-15.31752 23.6726,0 41.775,5.57001 55.7,16.71002 13.9251,9.7475 20.8876,25.06501 22.28,44.56003 l -20.8874,0 c 0,-13.92501 -5.57,-25.06501 -15.3176,-32.02753 -9.7475,-6.96251 -23.6724,-11.14002 -41.775,-11.14002 -16.7101,0 -30.6351,2.78502 -40.3825,9.74753 -9.7476,6.9625 -15.3176,16.71001 -15.3176,27.85001 0,9.74751 4.1775,16.71002 11.14,20.88752 6.9626,5.57001 19.495,9.7475 38.99,12.53252 l 37.5976,6.9625 c 18.1026,2.78501 30.6351,8.35501 38.9901,16.71002 8.355,8.355 12.5325,19.495 12.5325,34.81252 0,18.10252 -6.9625,33.42004 -20.8875,44.56004 -13.9249,9.7475 -34.8126,15.31752 -59.8776,15.31752 -25.0651,0 -45.9525,-5.57002 -61.2699,-18.10253 -15.3177,-11.14001 -22.2801,-27.85002 -22.2801,-48.73754 l 0,-2.785 z"
     class="fil3" /></svg>